<svg width="10" height="8" viewBox="0 0 10 8" fill="none" xmlns="http://www.w3.org/2000/svg">
<path d="M1.12139 3.43493C1.12139 3.43493 4.87139 1.89593 6.17195 1.35401C6.67052 1.13726 8.36126 0.443601 8.36126 0.443601C8.36126 0.443601 9.14162 0.140151 9.07658 0.877131C9.05489 1.18061 8.88149 2.24273 8.70809 3.39158C8.44796 5.01731 8.16617 6.79475 8.16617 6.79475C8.16617 6.79475 8.12282 7.29332 7.75433 7.38002C7.38584 7.46672 6.77888 7.07657 6.67052 6.98984C6.58379 6.92483 5.04479 5.94938 4.48121 5.4725C4.32947 5.34245 4.15607 5.08235 4.50287 4.77887C5.28323 4.06355 6.2153 3.17483 6.77888 2.61125C7.03901 2.35112 7.29911 1.74419 6.2153 2.48117C4.6763 3.54332 3.15896 4.54043 3.15896 4.54043C3.15896 4.54043 2.81213 4.75718 2.16185 4.56209C1.51154 4.36703 0.752867 4.1069 0.752867 4.1069C0.752867 4.1069 0.232667 3.78176 1.12139 3.43493Z" fill="white"/>
</svg>
